<svg width="563" height="472" viewBox="0 0 563 472" fill="none" xmlns="http://www.w3.org/2000/svg">
<path d="M560.833 471C559.024 385.771 537.035 250.972 365.891 211.093C308.408 200.263 295.079 201.096 204.273 196.931C118.465 190.267 42.3211 167.942 1.00005 2.00089" stroke="#CE633E" stroke-width="2"/>
<path d="M32.1581 1C43.6528 58.6077 119.466 174.142 330.76 175.416C432.248 178.274 548.491 224.083 560.91 378.408V435.845C562.393 415.208 562.333 396.096 560.91 378.408V1H32.1581Z" fill="#CE633E"/>
<path d="M32.1581 1C43.6528 58.6077 119.466 174.142 330.76 175.416C443.879 178.602 575.331 235.147 560.91 435.845V1H32.1581Z" stroke="#CE633E"/>
</svg>
