<svg width="402" height="386" viewBox="0 0 402 386" fill="none" xmlns="http://www.w3.org/2000/svg">
<path d="M401.136 385C399.846 315.185 384.168 204.764 262.14 172.097C221.154 163.226 211.65 163.908 146.904 160.496C85.722 155.037 31.4304 136.75 1.968 0.819153" stroke="#DAA520" stroke-width="2"/>
<path d="M24.1841 0C32.38 47.1893 86.4357 141.829 237.091 142.873C309.453 145.214 392.336 182.738 401.191 309.154V356.203C402.248 339.299 402.206 323.642 401.191 309.154V0L24.1841 0Z" fill="#DAA520"/>
<path d="M24.1841 0C32.38 47.1893 86.4357 141.829 237.091 142.873C317.746 145.482 411.473 191.802 401.191 356.203V0L24.1841 0Z" stroke="#DAA520"/>
</svg>
