<svg width="562" height="471" viewBox="0 0 562 471" fill="none" xmlns="http://www.w3.org/2000/svg">
<path d="M560.801 470C558.992 384.771 537.005 249.971 365.87 210.092C308.391 199.263 295.062 200.096 204.261 195.931C118.458 189.266 42.3186 166.941 0.999949 1" stroke="#DAA520" stroke-width="2"/>
<path d="M32.1562 0C43.6504 57.6077 119.459 173.142 330.742 174.416C432.223 177.274 548.46 223.083 560.878 377.409V434.845C562.361 414.209 562.301 395.096 560.878 377.409V0L32.1562 0Z" fill="#DAA520"/>
<path d="M32.1563 0C43.6504 57.6077 119.459 173.142 330.742 174.416C443.854 177.602 575.298 234.148 560.878 434.845V0L32.1563 0Z" stroke="#DAA520"/>
</svg>
