<svg width="137" height="962" viewBox="0 0 137 962" fill="none" xmlns="http://www.w3.org/2000/svg">
<path d="M46.6496 740.759C35.1296 449.675 101.05 174.494 135.45 73.2892V1911.84C18.9696 1809.67 3.14438 1561.4 34.6496 1420.28C84.6772 1196.18 58.1696 1031.84 46.6496 740.759Z" fill="#DAA520"/>
<path d="M135.45 1C79.0843 97.3855 10.2843 456.422 21.0496 740.759C31.8149 1025.1 68.0557 1133.99 21.0496 1376.9C-20.9157 1593.77 -3.43041 1889.19 135.45 2001M135.45 73.2892C101.05 174.494 35.1296 449.675 46.6496 740.759C58.1696 1031.84 84.6772 1196.18 34.6496 1420.28C3.14438 1561.4 18.9696 1809.67 135.45 1911.84V73.2892Z" stroke="#DAA520" stroke-width="2"/>
</svg>
