<svg width="563" height="472" viewBox="0 0 563 472" fill="none" xmlns="http://www.w3.org/2000/svg">
<path d="M2.16711 471C3.97579 385.771 25.9647 250.972 197.109 211.093C254.592 200.263 267.921 201.096 358.727 196.931C444.535 190.267 520.679 167.942 562 2.00089" stroke="#CE633E" stroke-width="2"/>
<path d="M530.842 1C519.347 58.6077 443.534 174.142 232.24 175.416C130.752 178.274 14.5086 224.083 2.08989 378.408V435.845C0.607073 415.208 0.66658 396.096 2.08989 378.408V1H530.842Z" fill="#CE633E"/>
<path d="M530.842 1C519.347 58.6077 443.534 174.142 232.24 175.416C119.121 178.602 -12.3308 235.147 2.08989 435.845V1H530.842Z" stroke="#CE633E"/>
</svg>
