<svg width="400" height="386" viewBox="0 0 400 386" fill="none" xmlns="http://www.w3.org/2000/svg">
<path d="M-0.334839 385C0.954769 315.185 16.6331 204.764 138.661 172.097C179.647 163.226 189.151 163.909 253.897 160.497C315.079 155.038 369.371 136.75 398.833 0.819885" stroke="#DAA520" stroke-width="2"/>
<path d="M376.617 0C368.421 47.1893 314.365 141.829 163.71 142.873C91.348 145.214 8.46478 182.738 -0.389887 309.154V356.203C-1.44715 339.298 -1.40472 323.642 -0.389887 309.154V0H376.617Z" fill="#DAA520"/>
<path d="M376.617 0C368.421 47.1893 314.365 141.829 163.71 142.873C83.0546 145.482 -10.672 191.802 -0.389887 356.203V0H376.617Z" stroke="#DAA520"/>
</svg>
