<?xml version="1.0" standalone="no"?><svg xmlns="http://www.w3.org/2000/svg" viewBox="0 0 1440 320"><path fill="#ffffffff" fill-opacity="1" d="M0,224L6.2,218.7C12.3,213,25,203,37,181.3C49.2,160,62,128,74,128C86.2,128,98,160,111,192C123.1,224,135,256,148,229.3C160,203,172,117,185,106.7C196.9,96,209,160,222,208C233.8,256,246,288,258,288C270.8,288,283,256,295,240C307.7,224,320,224,332,218.7C344.6,213,357,203,369,170.7C381.5,139,394,85,406,101.3C418.5,117,431,203,443,234.7C455.4,267,468,245,480,208C492.3,171,505,117,517,106.7C529.2,96,542,128,554,133.3C566.2,139,578,117,591,96C603.1,75,615,53,628,80C640,107,652,181,665,202.7C676.9,224,689,192,702,149.3C713.8,107,726,53,738,32C750.8,11,763,21,775,37.3C787.7,53,800,75,812,117.3C824.6,160,837,224,849,245.3C861.5,267,874,245,886,202.7C898.5,160,911,96,923,106.7C935.4,117,948,203,960,202.7C972.3,203,985,117,997,112C1009.2,107,1022,181,1034,208C1046.2,235,1058,213,1071,202.7C1083.1,192,1095,192,1108,170.7C1120,149,1132,107,1145,128C1156.9,149,1169,235,1182,245.3C1193.8,256,1206,192,1218,154.7C1230.8,117,1243,107,1255,85.3C1267.7,64,1280,32,1292,32C1304.6,32,1317,64,1329,74.7C1341.5,85,1354,75,1366,74.7C1378.5,75,1391,85,1403,128C1415.4,171,1428,245,1434,282.7L1440,320L1440,320L1433.8,320C1427.7,320,1415,320,1403,320C1390.8,320,1378,320,1366,320C1353.8,320,1342,320,1329,320C1316.9,320,1305,320,1292,320C1280,320,1268,320,1255,320C1243.1,320,1231,320,1218,320C1206.2,320,1194,320,1182,320C1169.2,320,1157,320,1145,320C1132.3,320,1120,320,1108,320C1095.4,320,1083,320,1071,320C1058.5,320,1046,320,1034,320C1021.5,320,1009,320,997,320C984.6,320,972,320,960,320C947.7,320,935,320,923,320C910.8,320,898,320,886,320C873.8,320,862,320,849,320C836.9,320,825,320,812,320C800,320,788,320,775,320C763.1,320,751,320,738,320C726.2,320,714,320,702,320C689.2,320,677,320,665,320C652.3,320,640,320,628,320C615.4,320,603,320,591,320C578.5,320,566,320,554,320C541.5,320,529,320,517,320C504.6,320,492,320,480,320C467.7,320,455,320,443,320C430.8,320,418,320,406,320C393.8,320,382,320,369,320C356.9,320,345,320,332,320C320,320,308,320,295,320C283.1,320,271,320,258,320C246.2,320,234,320,222,320C209.2,320,197,320,185,320C172.3,320,160,320,148,320C135.4,320,123,320,111,320C98.5,320,86,320,74,320C61.5,320,49,320,37,320C24.6,320,12,320,6,320L0,320Z"></path></svg>