<?xml version="1.0" standalone="no"?><svg xmlns="http://www.w3.org/2000/svg" viewBox="0 0 1440 320"><path fill="#36d6ad" fill-opacity="1" d="M0,256L24,266.7C48,277,96,299,144,261.3C192,224,240,128,288,117.3C336,107,384,181,432,224C480,267,528,277,576,240C624,203,672,117,720,106.7C768,96,816,160,864,170.7C912,181,960,139,1008,138.7C1056,139,1104,181,1152,202.7C1200,224,1248,224,1296,197.3C1344,171,1392,117,1416,90.7L1440,64L1440,320L1416,320C1392,320,1344,320,1296,320C1248,320,1200,320,1152,320C1104,320,1056,320,1008,320C960,320,912,320,864,320C816,320,768,320,720,320C672,320,624,320,576,320C528,320,480,320,432,320C384,320,336,320,288,320C240,320,192,320,144,320C96,320,48,320,24,320L0,320Z"></path></svg>